<mxfile host="app.diagrams.net" modified="2023-11-15T05:57:34.767Z" agent="Mozilla/5.0 (Windows NT 10.0; Win64; x64) AppleWebKit/537.36 (KHTML, like Gecko) Chrome/119.0.0.0 Safari/537.36" version="22.1.1" etag="7ptuSw1lx5KXh5bBvWOm" type="github">
  <diagram name="Halaman-1" id="YjiyN0LrHsnDePFPXRBf">
    <mxGraphModel>
      <root>
        <mxCell id="0" />
        <mxCell id="1" parent="0" />
      </root>
    </mxGraphModel>
  </diagram>
</mxfile>
